<?xml version="1.0" encoding="iso-8859-1"?>
<!-- Generator: Adobe Illustrator 19.0.0, SVG Export Plug-In . SVG Version: 6.00 Build 0)  -->
<svg version="1.1" id="Layer_1" xmlns="http://www.w3.org/2000/svg" xmlns:xlink="http://www.w3.org/1999/xlink" x="0px" y="0px"
	 viewBox="0 0 512.001 512.001" style="enable-background:new 0 0 512.001 512.001;" xml:space="preserve">
<g>
	<g>
		<g>
			<path d="M258.391,125.802c-23.009,0-41.729,18.718-41.729,41.726c0,23.009,18.72,41.728,41.729,41.728
				s41.729-18.719,41.729-41.728C300.119,144.52,281.4,125.802,258.391,125.802z M258.391,193.043
				c-14.07,0-25.517-11.447-25.517-25.516c0-14.068,11.447-25.515,25.517-25.515s25.517,11.446,25.517,25.515
				C283.908,181.597,272.461,193.043,258.391,193.043z"/>
			<path d="M424.238,361.855V242.182c0-2.158-0.861-4.228-2.392-5.75l-77.889-77.405v-17.089c0-27.878-7.885-54.983-22.802-78.386
				c-14.513-22.769-34.987-41.061-59.206-52.898c-2.246-1.098-4.871-1.098-7.118,0c-24.219,11.837-44.692,30.129-59.204,52.898
				c-14.917,23.402-22.802,50.509-22.802,78.386v17.089l-77.891,77.405c-1.531,1.522-2.392,3.591-2.392,5.75v119.673
				c0,4.476,3.629,8.106,8.106,8.106h72.177v0.32c0,15.781,12.839,28.62,28.621,28.62h12.032
				c-4.781,9.998-7.272,20.922-7.272,32.216c0,31.459,19.859,59.818,49.414,70.566c0.895,0.325,1.832,0.488,2.771,0.488
				c0.937,0,1.875-0.162,2.77-0.488c29.556-10.749,49.415-39.108,49.415-70.566c0-11.294-2.49-22.218-7.271-32.216h12.033
				c15.782,0,28.62-12.839,28.62-28.62v-0.32h72.174C420.61,369.96,424.238,366.331,424.238,361.855z M172.825,339.061v14.69
				h-64.072v-0.001V245.554l64.072-63.671V339.061z M201.446,382.689c-6.843,0.001-12.41-5.566-12.41-12.409v-8.425v-14.69h61.249
				v35.524H201.446z M258.391,485.36c-21.634-9.14-35.974-30.572-35.974-54.244c0-11.389,3.226-22.307,9.367-31.808h18.501v14.975
				c0,4.476,3.629,8.106,8.106,8.106c4.478,0,8.106-3.629,8.106-8.106v-14.975h18.502c6.14,9.501,9.366,20.418,9.366,31.808
				C294.364,454.788,280.026,476.22,258.391,485.36z M327.747,370.28h-0.001c0,6.843-5.567,12.409-12.409,12.409h-48.84v-35.524
				h61.25V370.28z M408.027,353.749h-64.07V339.06v-49.97c0-4.476-3.628-8.106-8.106-8.106c-4.478,0-8.106,3.629-8.106,8.106v41.865
				h-61.25v-21.527c0-4.476-3.628-8.106-8.106-8.106c-4.476,0-8.106,3.629-8.106,8.106v21.527h-61.249V162.4v-20.462
				c0-48.679,26.472-92.349,69.355-114.914c42.884,22.564,69.356,66.234,69.356,114.914v119.593c0,4.476,3.628,8.106,8.106,8.106
				c4.477,0,8.106-3.629,8.106-8.106v-79.649l64.07,63.671V353.749z"/>
			<path d="M443.547,412.122c-9.096,0-18.082,1.816-26.405,5.29c-4.542-14.423-18.04-24.911-33.943-24.911
				c-19.617,0-35.577,15.96-35.577,35.578c0,4.476,3.628,8.106,8.106,8.106c4.478,0,8.106-3.629,8.106-8.106
				c0-10.679,8.687-19.367,19.366-19.367s19.367,8.688,19.367,19.367c0,4.576-1.624,9.016-4.573,12.501
				c-2.892,3.417-2.466,8.531,0.951,11.423c1.523,1.288,3.382,1.918,5.232,1.918c2.302,0,4.588-0.975,6.192-2.869
				c3.925-4.637,6.565-10.194,7.729-16.094c7.741-4.326,16.521-6.625,25.45-6.625c28.806,0,52.242,23.436,52.242,52.242
				c0,4.476,3.628,8.106,8.106,8.106s8.106-3.629,8.106-8.106C512,442.83,481.292,412.122,443.547,412.122z"/>
			<path d="M155.229,446.41c-3.248,0-6.403,0.391-9.434,1.109c1.159-1.981,1.477-4.436,0.66-6.772
				c-6.285-17.949-23.301-30.01-42.344-30.01c-14.043,0-27.282,6.624-35.743,17.772c-4.499-1.188-9.193-1.815-13.992-1.815
				C24.393,426.694,0,451.086,0,481.069c0,4.476,3.629,8.106,8.106,8.106s8.106-3.629,8.106-8.106
				c0-21.044,17.121-38.164,38.165-38.164c13.205,0,25.292,6.682,32.334,17.875c2.383,3.788,7.387,4.929,11.177,2.545
				c3.789-2.384,4.928-7.388,2.544-11.177c-4.333-6.886-10.011-12.567-16.576-16.806c5.331-5.319,12.609-8.395,20.258-8.395
				c12.164,0,23.032,7.698,27.042,19.156c0.86,2.455,2.785,4.228,5.074,4.997c-13.038,6.859-21.954,20.536-21.954,36.263
				c0,4.476,3.629,8.106,8.106,8.106s8.106-3.629,8.106-8.106c0-13.643,11.1-24.743,24.744-24.743
				c13.644,0,24.745,11.1,24.745,24.743c0,4.476,3.629,8.106,8.106,8.106c4.476,0,8.106-3.629,8.106-8.106
				C196.184,464.781,177.811,446.41,155.229,446.41z"/>
		</g>
	</g>
</g>
<g>
</g>
<g>
</g>
<g>
</g>
<g>
</g>
<g>
</g>
<g>
</g>
<g>
</g>
<g>
</g>
<g>
</g>
<g>
</g>
<g>
</g>
<g>
</g>
<g>
</g>
<g>
</g>
<g>
</g>
</svg>
